<svg width="1203" height="95" viewBox="0 0 1203 95" fill="none" xmlns="http://www.w3.org/2000/svg">
<g filter="url(#filter0_d_160_9)">
<path d="M299.902 73.9561C300.814 73.9561 301.714 73.7852 302.603 73.4434C303.491 73.1243 304.277 72.5775 304.961 71.8027C305.667 71.0508 306.237 70.0596 306.67 68.8291C307.103 67.5986 307.319 66.0947 307.319 64.3174C307.319 62.4033 306.841 60.5462 305.884 58.7461C304.95 56.946 303.765 55.18 302.329 53.4482C300.916 51.6937 299.378 49.9619 297.715 48.2529C296.074 46.5212 294.536 44.7666 293.101 42.9893C291.688 41.1891 290.503 39.3434 289.546 37.4521C288.612 35.5381 288.145 33.5443 288.145 31.4707C288.145 29.3971 288.521 27.5286 289.272 25.8652C290.047 24.179 291.084 22.7549 292.383 21.5928C293.704 20.4079 295.231 19.4964 296.963 18.8584C298.717 18.2204 300.586 17.9014 302.568 17.9014C304.688 17.9014 306.567 18.1292 308.208 18.585C309.871 19.0179 311.273 19.6217 312.412 20.3965C313.574 21.1484 314.451 22.0485 315.044 23.0967C315.636 24.1221 315.933 25.2158 315.933 26.3779C315.933 26.9248 315.853 27.4945 315.693 28.0869C315.534 28.6566 315.283 29.1807 314.941 29.6592C314.6 30.1377 314.167 30.5365 313.643 30.8555C313.118 31.1745 312.503 31.334 311.797 31.334C310.954 31.334 310.327 31.0833 309.917 30.582C309.53 30.0579 309.233 29.4199 309.028 28.668C308.846 27.916 308.687 27.0957 308.55 26.207C308.413 25.2956 308.197 24.4639 307.9 23.7119C307.604 22.96 307.16 22.3333 306.567 21.832C305.975 21.3079 305.109 21.0459 303.97 21.0459C303.354 21.0459 302.739 21.1826 302.124 21.4561C301.532 21.7295 300.985 22.151 300.483 22.7207C300.005 23.2676 299.618 23.974 299.321 24.8398C299.025 25.7057 298.877 26.7311 298.877 27.916C298.877 29.2832 299.162 30.6162 299.731 31.915C300.301 33.2139 301.053 34.5013 301.987 35.7773C302.922 37.0306 303.981 38.2952 305.166 39.5713C306.374 40.8245 307.593 42.1006 308.823 43.3994C310.076 44.6755 311.296 45.9971 312.48 47.3643C313.688 48.7087 314.759 50.11 315.693 51.5684C316.628 53.0267 317.38 54.5534 317.949 56.1484C318.519 57.7435 318.804 59.4183 318.804 61.1729C318.804 63.7477 318.302 66.0492 317.3 68.0771C316.32 70.0824 314.976 71.7686 313.267 73.1357C311.58 74.5257 309.598 75.5853 307.319 76.3145C305.041 77.0436 302.614 77.4082 300.039 77.4082C297.715 77.4082 295.653 77.112 293.853 76.5195C292.075 75.9499 290.571 75.1865 289.341 74.2295C288.11 73.2725 287.176 72.1787 286.538 70.9482C285.923 69.7406 285.615 68.4873 285.615 67.1885C285.615 66.6416 285.695 66.0605 285.854 65.4453C286.037 64.8073 286.287 64.2262 286.606 63.7021C286.948 63.1781 287.37 62.7451 287.871 62.4033C288.372 62.0387 288.953 61.8564 289.614 61.8564C290.298 61.8564 290.845 62.0273 291.255 62.3691C291.688 62.7109 292.03 63.1667 292.28 63.7363C292.531 64.306 292.736 64.9554 292.896 65.6846C293.055 66.4137 293.226 67.1543 293.408 67.9062C293.59 68.6582 293.818 69.3988 294.092 70.1279C294.365 70.8571 294.741 71.5065 295.22 72.0762C295.698 72.6458 296.313 73.1016 297.065 73.4434C297.817 73.7852 298.763 73.9561 299.902 73.9561ZM336.201 65.9238C336.201 66.2201 336.144 66.5846 336.03 67.0176C335.939 67.4277 335.7 67.8265 335.312 68.2139C334.948 68.5785 334.412 68.8861 333.706 69.1367C333 69.4102 332.043 69.5469 330.835 69.5469C329.627 69.5469 328.682 69.3988 327.998 69.1025C327.314 68.8291 326.802 68.4987 326.46 68.1113C326.118 67.724 325.902 67.3252 325.811 66.915C325.742 66.5049 325.708 66.1745 325.708 65.9238V39.5371C325.708 38.8763 325.549 38.3066 325.229 37.8281C324.933 37.3268 324.421 37.0762 323.691 37.0762C323.304 37.0762 322.974 37.1445 322.7 37.2812C322.427 37.418 322.131 37.6117 321.812 37.8623L321.094 37.0078C321.618 36.5749 322.199 36.1533 322.837 35.7432C323.498 35.3102 324.204 34.9342 324.956 34.6152C325.708 34.2962 326.517 34.0342 327.383 33.8291C328.249 33.624 329.16 33.5215 330.117 33.5215C331.598 33.5215 332.749 33.7266 333.569 34.1367C334.39 34.5241 334.993 35.014 335.381 35.6064C335.768 36.1761 335.996 36.7913 336.064 37.4521C336.156 38.113 336.201 38.694 336.201 39.1953V65.9238ZM324.648 25.7285C324.648 25.0905 324.785 24.4867 325.059 23.917C325.355 23.3245 325.754 22.8118 326.255 22.3789C326.779 21.946 327.371 21.6042 328.032 21.3535C328.716 21.1029 329.456 20.9775 330.254 20.9775C331.029 20.9775 331.746 21.1029 332.407 21.3535C333.091 21.6042 333.683 21.946 334.185 22.3789C334.686 22.8118 335.073 23.3245 335.347 23.917C335.643 24.4867 335.791 25.0905 335.791 25.7285C335.791 26.3893 335.643 27.0046 335.347 27.5742C335.073 28.1439 334.686 28.6452 334.185 29.0781C333.683 29.4883 333.091 29.8187 332.407 30.0693C331.746 30.32 331.029 30.4453 330.254 30.4453C329.456 30.4453 328.716 30.32 328.032 30.0693C327.371 29.8187 326.779 29.4883 326.255 29.0781C325.754 28.6452 325.355 28.1439 325.059 27.5742C324.785 27.0046 324.648 26.3893 324.648 25.7285ZM360.229 51.2949C360.229 50.7253 360.047 50.2923 359.683 49.9961C359.318 49.6999 358.851 49.5518 358.281 49.5518C357.484 49.5518 356.72 49.734 355.991 50.0986C355.285 50.4632 354.658 50.9987 354.111 51.7051C353.564 52.4115 353.132 53.2887 352.812 54.3369C352.493 55.3623 352.334 56.5586 352.334 57.9258C352.334 59.2474 352.425 60.3411 352.607 61.207C352.812 62.0729 353.075 62.7679 353.394 63.292C353.735 63.7933 354.123 64.1465 354.556 64.3516C354.989 64.5566 355.444 64.6592 355.923 64.6592C356.515 64.6592 357.074 64.5111 357.598 64.2148C358.122 63.8958 358.577 63.4971 358.965 63.0186C359.352 62.54 359.66 62.0046 359.888 61.4121C360.116 60.8197 360.229 60.2272 360.229 59.6348V51.2949ZM354.795 36.3242C354.02 36.3242 353.302 36.4154 352.642 36.5977C351.981 36.7799 351.411 37.0078 350.933 37.2812C350.454 37.5547 350.078 37.8623 349.805 38.2041C349.531 38.5231 349.395 38.8307 349.395 39.127C349.395 39.4688 349.565 39.7194 349.907 39.8789C350.272 40.0156 350.671 40.1865 351.104 40.3916C351.536 40.5739 351.924 40.8473 352.266 41.2119C352.63 41.5537 352.812 42.0892 352.812 42.8184C352.812 43.2969 352.71 43.7412 352.505 44.1514C352.323 44.5387 352.061 44.8919 351.719 45.2109C351.4 45.5072 351.012 45.7464 350.557 45.9287C350.124 46.0882 349.668 46.168 349.189 46.168C347.913 46.168 346.877 45.735 346.079 44.8691C345.304 44.0033 344.917 42.8525 344.917 41.417C344.917 40.027 345.282 38.8421 346.011 37.8623C346.74 36.8597 347.686 36.0394 348.848 35.4014C350.033 34.7633 351.366 34.2962 352.847 34C354.328 33.681 355.809 33.5215 357.29 33.5215C359.067 33.5215 360.765 33.7152 362.383 34.1025C364.001 34.4899 365.425 35.1051 366.655 35.9482C367.909 36.7913 368.9 37.8623 369.629 39.1611C370.381 40.46 370.757 42.0322 370.757 43.8779V63.1895C370.757 63.3945 370.768 63.6224 370.791 63.873C370.814 64.1237 370.871 64.3516 370.962 64.5566C371.053 64.7617 371.19 64.9326 371.372 65.0693C371.554 65.2061 371.816 65.2744 372.158 65.2744C372.568 65.2744 372.944 65.1263 373.286 64.8301C373.651 64.5111 373.97 64.1921 374.243 63.873L375.098 64.5908C374.756 65.0693 374.346 65.5934 373.867 66.1631C373.389 66.7327 372.808 67.2682 372.124 67.7695C371.44 68.2708 370.643 68.6924 369.731 69.0342C368.82 69.376 367.783 69.5469 366.621 69.5469C365.186 69.5469 363.91 69.1253 362.793 68.2822C361.676 67.4163 360.947 66.0947 360.605 64.3174C359.876 65.2972 359.113 66.1175 358.315 66.7783C357.541 67.4391 356.743 67.9746 355.923 68.3848C355.103 68.7949 354.271 69.0911 353.428 69.2734C352.607 69.4557 351.776 69.5469 350.933 69.5469C349.839 69.5469 348.779 69.376 347.754 69.0342C346.729 68.6924 345.806 68.1569 344.985 67.4277C344.188 66.6758 343.538 65.7074 343.037 64.5225C342.559 63.3376 342.319 61.8906 342.319 60.1816C342.319 58.1081 342.729 56.4105 343.55 55.0889C344.37 53.7673 345.441 52.6621 346.763 51.7734C348.107 50.862 349.622 50.0872 351.309 49.4492C353.018 48.8112 354.761 48.139 356.538 47.4326C357.86 46.9085 358.817 46.1338 359.409 45.1084C360.024 44.0602 360.332 42.9893 360.332 41.8955C360.332 40.2093 359.831 38.8649 358.828 37.8623C357.848 36.8369 356.504 36.3242 354.795 36.3242ZM380.122 39.5371C380.122 38.8763 379.963 38.3066 379.644 37.8281C379.347 37.3268 378.835 37.0762 378.105 37.0762C377.718 37.0762 377.388 37.1445 377.114 37.2812C376.841 37.418 376.545 37.6117 376.226 37.8623L375.508 37.0078C376.032 36.5749 376.613 36.1533 377.251 35.7432C377.912 35.3102 378.618 34.9342 379.37 34.6152C380.122 34.2962 380.931 34.0342 381.797 33.8291C382.663 33.624 383.574 33.5215 384.531 33.5215C385.557 33.5215 386.434 33.681 387.163 34C387.892 34.319 388.496 34.7064 388.975 35.1621C389.476 35.5951 389.852 36.0622 390.103 36.5635C390.353 37.042 390.501 37.4521 390.547 37.7939C391.003 37.1559 391.538 36.5749 392.153 36.0508C392.791 35.5267 393.475 35.0824 394.204 34.7178C394.956 34.3304 395.742 34.0342 396.562 33.8291C397.406 33.624 398.271 33.5215 399.16 33.5215C400.983 33.5215 402.635 33.8975 404.116 34.6494C405.597 35.4014 406.862 36.5179 407.91 37.999C408.981 39.4801 409.801 41.3145 410.371 43.502C410.941 45.6895 411.226 48.2188 411.226 51.0898C411.226 54.4167 410.872 57.2536 410.166 59.6006C409.482 61.9248 408.571 63.8275 407.432 65.3086C406.315 66.7897 405.028 67.8721 403.569 68.5557C402.134 69.2165 400.664 69.5469 399.16 69.5469C397.907 69.5469 396.802 69.4215 395.845 69.1709C394.91 68.9202 394.102 68.6126 393.418 68.248C392.734 67.8835 392.165 67.5189 391.709 67.1543C391.253 66.7669 390.889 66.4479 390.615 66.1973V82.877C390.615 83.1732 390.57 83.5264 390.479 83.9365C390.387 84.3467 390.16 84.734 389.795 85.0986C389.453 85.486 388.929 85.8164 388.223 86.0898C387.539 86.3633 386.593 86.5 385.386 86.5C384.178 86.5 383.221 86.3519 382.515 86.0557C381.831 85.7822 381.307 85.4404 380.942 85.0303C380.578 84.6429 380.35 84.2441 380.259 83.834C380.168 83.4466 380.122 83.1276 380.122 82.877V39.5371ZM390.615 61.3096C390.615 61.4919 390.695 61.8109 390.854 62.2666C391.014 62.7223 391.265 63.1895 391.606 63.668C391.948 64.1465 392.381 64.5794 392.905 64.9668C393.452 65.3314 394.113 65.5137 394.888 65.5137C395.89 65.5137 396.745 65.1377 397.451 64.3857C398.158 63.611 398.739 62.5742 399.194 61.2754C399.65 59.9538 399.98 58.4271 400.186 56.6953C400.391 54.9408 400.493 53.0723 400.493 51.0898C400.493 48.6517 400.356 46.5895 400.083 44.9033C399.832 43.2171 399.456 41.8613 398.955 40.8359C398.454 39.7878 397.85 39.0358 397.144 38.5801C396.46 38.1016 395.685 37.8623 394.819 37.8623C394.318 37.8623 393.817 38.0104 393.315 38.3066C392.814 38.5801 392.358 38.9333 391.948 39.3662C391.561 39.7764 391.242 40.2435 390.991 40.7676C390.741 41.2917 390.615 41.793 390.615 42.2715V61.3096ZM433.101 51.2949C433.101 50.7253 432.918 50.2923 432.554 49.9961C432.189 49.6999 431.722 49.5518 431.152 49.5518C430.355 49.5518 429.591 49.734 428.862 50.0986C428.156 50.4632 427.529 50.9987 426.982 51.7051C426.436 52.4115 426.003 53.2887 425.684 54.3369C425.365 55.3623 425.205 56.5586 425.205 57.9258C425.205 59.2474 425.296 60.3411 425.479 61.207C425.684 62.0729 425.946 62.7679 426.265 63.292C426.606 63.7933 426.994 64.1465 427.427 64.3516C427.86 64.5566 428.315 64.6592 428.794 64.6592C429.386 64.6592 429.945 64.5111 430.469 64.2148C430.993 63.8958 431.449 63.4971 431.836 63.0186C432.223 62.54 432.531 62.0046 432.759 61.4121C432.987 60.8197 433.101 60.2272 433.101 59.6348V51.2949ZM427.666 36.3242C426.891 36.3242 426.174 36.4154 425.513 36.5977C424.852 36.7799 424.282 37.0078 423.804 37.2812C423.325 37.5547 422.949 37.8623 422.676 38.2041C422.402 38.5231 422.266 38.8307 422.266 39.127C422.266 39.4688 422.437 39.7194 422.778 39.8789C423.143 40.0156 423.542 40.1865 423.975 40.3916C424.408 40.5739 424.795 40.8473 425.137 41.2119C425.501 41.5537 425.684 42.0892 425.684 42.8184C425.684 43.2969 425.581 43.7412 425.376 44.1514C425.194 44.5387 424.932 44.8919 424.59 45.2109C424.271 45.5072 423.883 45.7464 423.428 45.9287C422.995 46.0882 422.539 46.168 422.061 46.168C420.785 46.168 419.748 45.735 418.95 44.8691C418.175 44.0033 417.788 42.8525 417.788 41.417C417.788 40.027 418.153 38.8421 418.882 37.8623C419.611 36.8597 420.557 36.0394 421.719 35.4014C422.904 34.7633 424.237 34.2962 425.718 34C427.199 33.681 428.68 33.5215 430.161 33.5215C431.938 33.5215 433.636 33.7152 435.254 34.1025C436.872 34.4899 438.296 35.1051 439.526 35.9482C440.78 36.7913 441.771 37.8623 442.5 39.1611C443.252 40.46 443.628 42.0322 443.628 43.8779V63.1895C443.628 63.3945 443.639 63.6224 443.662 63.873C443.685 64.1237 443.742 64.3516 443.833 64.5566C443.924 64.7617 444.061 64.9326 444.243 65.0693C444.425 65.2061 444.688 65.2744 445.029 65.2744C445.439 65.2744 445.815 65.1263 446.157 64.8301C446.522 64.5111 446.841 64.1921 447.114 63.873L447.969 64.5908C447.627 65.0693 447.217 65.5934 446.738 66.1631C446.26 66.7327 445.679 67.2682 444.995 67.7695C444.312 68.2708 443.514 68.6924 442.603 69.0342C441.691 69.376 440.654 69.5469 439.492 69.5469C438.057 69.5469 436.781 69.1253 435.664 68.2822C434.548 67.4163 433.818 66.0947 433.477 64.3174C432.747 65.2972 431.984 66.1175 431.187 66.7783C430.412 67.4391 429.614 67.9746 428.794 68.3848C427.974 68.7949 427.142 69.0911 426.299 69.2734C425.479 69.4557 424.647 69.5469 423.804 69.5469C422.71 69.5469 421.65 69.376 420.625 69.0342C419.6 68.6924 418.677 68.1569 417.856 67.4277C417.059 66.6758 416.41 65.7074 415.908 64.5225C415.43 63.3376 415.19 61.8906 415.19 60.1816C415.19 58.1081 415.601 56.4105 416.421 55.0889C417.241 53.7673 418.312 52.6621 419.634 51.7734C420.978 50.862 422.493 50.0872 424.18 49.4492C425.889 48.8112 427.632 48.139 429.409 47.4326C430.731 46.9085 431.688 46.1338 432.28 45.1084C432.896 44.0602 433.203 42.9893 433.203 41.8955C433.203 40.2093 432.702 38.8649 431.699 37.8623C430.719 36.8369 429.375 36.3242 427.666 36.3242ZM492.676 64.5225C492.676 66.277 492.209 67.5531 491.274 68.3506C490.363 69.1481 488.962 69.5469 487.07 69.5469C485.156 69.5469 483.743 69.1481 482.832 68.3506C481.921 67.5531 481.465 66.277 481.465 64.5225V23.3701C481.465 22.8688 481.408 22.4701 481.294 22.1738C481.18 21.8776 481.021 21.6497 480.815 21.4902C480.61 21.3079 480.36 21.194 480.063 21.1484C479.79 21.0801 479.482 21.0459 479.141 21.0459C478.639 21.0459 478.013 21.1257 477.261 21.2852C476.532 21.4447 475.757 21.6839 474.937 22.0029C474.116 22.3219 473.285 22.7207 472.441 23.1992C471.621 23.6549 470.881 24.179 470.22 24.7715C469.582 25.3639 469.058 26.0247 468.647 26.7539C468.237 27.4831 468.032 28.2692 468.032 29.1123C468.032 29.8415 468.123 30.4225 468.306 30.8555C468.511 31.2884 468.739 31.6188 468.989 31.8467C469.24 32.0518 469.491 32.1885 469.741 32.2568C470.015 32.3024 470.208 32.3252 470.322 32.3252C470.892 32.3252 471.359 32.234 471.724 32.0518C472.088 31.8467 472.419 31.6416 472.715 31.4365C473.011 31.2087 473.285 31.0036 473.535 30.8213C473.809 30.6162 474.116 30.5137 474.458 30.5137C474.731 30.5137 475.016 30.582 475.312 30.7188C475.632 30.8327 475.916 31.0264 476.167 31.2998C476.44 31.5732 476.668 31.9378 476.851 32.3936C477.033 32.8265 477.124 33.362 477.124 34C477.124 34.9115 476.942 35.6976 476.577 36.3584C476.235 37.0192 475.78 37.5775 475.21 38.0332C474.663 38.4661 474.025 38.7965 473.296 39.0244C472.59 39.2295 471.883 39.332 471.177 39.332C470.083 39.332 469.092 39.1497 468.203 38.7852C467.337 38.3978 466.597 37.8737 465.981 37.2129C465.366 36.5521 464.899 35.7773 464.58 34.8887C464.261 34 464.102 33.0544 464.102 32.0518C464.102 30.4795 464.386 29.0439 464.956 27.7451C465.526 26.4235 466.3 25.2386 467.28 24.1904C468.283 23.1423 469.445 22.2308 470.767 21.4561C472.111 20.6585 473.558 19.9977 475.107 19.4736C476.657 18.9495 478.275 18.5622 479.961 18.3115C481.647 18.0381 483.333 17.9014 485.02 17.9014C486.888 17.9014 488.335 18.0837 489.36 18.4482C490.409 18.79 491.172 19.2116 491.65 19.7129C492.152 20.2142 492.448 20.7383 492.539 21.2852C492.63 21.832 492.676 22.2878 492.676 22.6523V64.5225ZM513.218 36.4609V61.7197C513.218 62.9274 513.446 63.7705 513.901 64.249C514.357 64.7048 514.984 64.9326 515.781 64.9326C516.396 64.9326 516.943 64.7617 517.422 64.4199C517.9 64.0781 518.311 63.6908 518.652 63.2578C519.062 62.7793 519.416 62.221 519.712 61.583L520.771 62.0615C520.43 62.7907 520.02 63.5882 519.541 64.4541C519.085 65.32 518.47 66.1289 517.695 66.8809C516.921 67.61 515.941 68.2253 514.756 68.7266C513.594 69.2279 512.124 69.4785 510.347 69.4785C509.344 69.4785 508.376 69.3304 507.441 69.0342C506.53 68.738 505.71 68.2708 504.98 67.6328C504.274 66.9948 503.704 66.1973 503.271 65.2402C502.839 64.2832 502.622 63.1325 502.622 61.7881V36.4609H498.794V34C499.432 34 500.321 33.8405 501.46 33.5215C502.599 33.1797 503.761 32.6214 504.946 31.8467C506.154 31.0719 507.271 30.0352 508.296 28.7363C509.321 27.4375 510.05 25.8311 510.483 23.917H513.218V34H518.789C520.612 34 521.523 33.6924 521.523 33.0771C521.523 32.8493 521.41 32.7012 521.182 32.6328C520.954 32.5417 520.692 32.4391 520.396 32.3252C520.122 32.1885 519.871 32.0062 519.644 31.7783C519.416 31.5505 519.302 31.1745 519.302 30.6504C519.302 30.0124 519.495 29.5111 519.883 29.1465C520.293 28.7819 520.817 28.5996 521.455 28.5996C521.865 28.5996 522.218 28.6908 522.515 28.873C522.834 29.0326 523.096 29.2604 523.301 29.5566C523.506 29.8301 523.654 30.1491 523.745 30.5137C523.859 30.8783 523.916 31.2428 523.916 31.6074C523.916 33.0885 523.483 34.2734 522.617 35.1621C521.774 36.028 520.407 36.4609 518.516 36.4609H513.218ZM556.284 63.0527C556.284 63.2578 556.296 63.4857 556.318 63.7363C556.341 63.9642 556.398 64.1921 556.489 64.4199C556.58 64.625 556.717 64.7959 556.899 64.9326C557.082 65.0693 557.344 65.1377 557.686 65.1377C558.118 65.1377 558.506 64.9896 558.848 64.6934C559.189 64.3743 559.508 64.0553 559.805 63.7363L560.625 64.4541C560.283 64.9326 559.85 65.4681 559.326 66.0605C558.825 66.6302 558.21 67.1771 557.48 67.7012C556.751 68.2253 555.92 68.6582 554.985 69C554.051 69.3646 552.992 69.5469 551.807 69.5469C550.804 69.5469 549.927 69.4102 549.175 69.1367C548.446 68.8861 547.819 68.5443 547.295 68.1113C546.794 67.6556 546.418 67.1315 546.167 66.5391C545.916 65.9238 545.791 65.2744 545.791 64.5908V63.0527C544.652 64.2832 543.455 65.3656 542.202 66.2998C541.655 66.71 541.074 67.1087 540.459 67.4961C539.844 67.8835 539.206 68.2367 538.545 68.5557C537.884 68.8519 537.201 69.0911 536.494 69.2734C535.788 69.4557 535.081 69.5469 534.375 69.5469C533.008 69.5469 531.834 69.3076 530.854 68.8291C529.897 68.3278 529.123 67.6784 528.53 66.8809C527.938 66.0833 527.505 65.1833 527.231 64.1807C526.958 63.1781 526.821 62.1755 526.821 61.1729V40.0156C526.821 39.8105 526.81 39.5941 526.787 39.3662C526.764 39.1156 526.707 38.8877 526.616 38.6826C526.525 38.4548 526.388 38.2725 526.206 38.1357C526.024 37.999 525.762 37.9307 525.42 37.9307C525.01 37.9307 524.622 38.0902 524.258 38.4092C523.916 38.7054 523.608 39.013 523.335 39.332L522.48 38.6143C522.822 38.1357 523.244 37.6117 523.745 37.042C524.269 36.4495 524.896 35.8913 525.625 35.3672C526.354 34.8431 527.186 34.4102 528.12 34.0684C529.077 33.7038 530.137 33.5215 531.299 33.5215C532.301 33.5215 533.179 33.6582 533.931 33.9316C534.683 34.1823 535.309 34.5355 535.811 34.9912C536.312 35.4242 536.688 35.9482 536.938 36.5635C537.189 37.1559 537.314 37.7939 537.314 38.4775V61.3096C537.314 61.6286 537.36 61.959 537.451 62.3008C537.565 62.6198 537.713 62.916 537.896 63.1895C538.101 63.4629 538.351 63.6908 538.647 63.873C538.944 64.0326 539.297 64.1123 539.707 64.1123C540.368 64.1123 541.029 63.9414 541.689 63.5996C542.35 63.2578 542.954 62.859 543.501 62.4033C544.048 61.9248 544.515 61.4577 544.902 61.002C545.312 60.5462 545.609 60.2044 545.791 59.9766V40.0156C545.791 39.8105 545.78 39.5941 545.757 39.3662C545.734 39.1156 545.677 38.8877 545.586 38.6826C545.495 38.4548 545.358 38.2725 545.176 38.1357C544.993 37.999 544.731 37.9307 544.39 37.9307C543.979 37.9307 543.592 38.0902 543.228 38.4092C542.886 38.7054 542.578 39.013 542.305 39.332L541.45 38.6143C541.792 38.1357 542.214 37.6117 542.715 37.042C543.239 36.4495 543.866 35.8913 544.595 35.3672C545.324 34.8431 546.156 34.4102 547.09 34.0684C548.047 33.7038 549.106 33.5215 550.269 33.5215C551.271 33.5215 552.148 33.6582 552.9 33.9316C553.652 34.1823 554.279 34.5355 554.78 34.9912C555.282 35.4242 555.658 35.9482 555.908 36.5635C556.159 37.1559 556.284 37.7939 556.284 38.4775V63.0527Z" fill="url(#paint0_linear_160_9)"/>
<path d="M299.902 73.9561C300.814 73.9561 301.714 73.7852 302.603 73.4434C303.491 73.1243 304.277 72.5775 304.961 71.8027C305.667 71.0508 306.237 70.0596 306.67 68.8291C307.103 67.5986 307.319 66.0947 307.319 64.3174C307.319 62.4033 306.841 60.5462 305.884 58.7461C304.95 56.946 303.765 55.18 302.329 53.4482C300.916 51.6937 299.378 49.9619 297.715 48.2529C296.074 46.5212 294.536 44.7666 293.101 42.9893C291.688 41.1891 290.503 39.3434 289.546 37.4521C288.612 35.5381 288.145 33.5443 288.145 31.4707C288.145 29.3971 288.521 27.5286 289.272 25.8652C290.047 24.179 291.084 22.7549 292.383 21.5928C293.704 20.4079 295.231 19.4964 296.963 18.8584C298.717 18.2204 300.586 17.9014 302.568 17.9014C304.688 17.9014 306.567 18.1292 308.208 18.585C309.871 19.0179 311.273 19.6217 312.412 20.3965C313.574 21.1484 314.451 22.0485 315.044 23.0967C315.636 24.1221 315.933 25.2158 315.933 26.3779C315.933 26.9248 315.853 27.4945 315.693 28.0869C315.534 28.6566 315.283 29.1807 314.941 29.6592C314.6 30.1377 314.167 30.5365 313.643 30.8555C313.118 31.1745 312.503 31.334 311.797 31.334C310.954 31.334 310.327 31.0833 309.917 30.582C309.53 30.0579 309.233 29.4199 309.028 28.668C308.846 27.916 308.687 27.0957 308.55 26.207C308.413 25.2956 308.197 24.4639 307.9 23.7119C307.604 22.96 307.16 22.3333 306.567 21.832C305.975 21.3079 305.109 21.0459 303.97 21.0459C303.354 21.0459 302.739 21.1826 302.124 21.4561C301.532 21.7295 300.985 22.151 300.483 22.7207C300.005 23.2676 299.618 23.974 299.321 24.8398C299.025 25.7057 298.877 26.7311 298.877 27.916C298.877 29.2832 299.162 30.6162 299.731 31.915C300.301 33.2139 301.053 34.5013 301.987 35.7773C302.922 37.0306 303.981 38.2952 305.166 39.5713C306.374 40.8245 307.593 42.1006 308.823 43.3994C310.076 44.6755 311.296 45.9971 312.48 47.3643C313.688 48.7087 314.759 50.11 315.693 51.5684C316.628 53.0267 317.38 54.5534 317.949 56.1484C318.519 57.7435 318.804 59.4183 318.804 61.1729C318.804 63.7477 318.302 66.0492 317.3 68.0771C316.32 70.0824 314.976 71.7686 313.267 73.1357C311.58 74.5257 309.598 75.5853 307.319 76.3145C305.041 77.0436 302.614 77.4082 300.039 77.4082C297.715 77.4082 295.653 77.112 293.853 76.5195C292.075 75.9499 290.571 75.1865 289.341 74.2295C288.11 73.2725 287.176 72.1787 286.538 70.9482C285.923 69.7406 285.615 68.4873 285.615 67.1885C285.615 66.6416 285.695 66.0605 285.854 65.4453C286.037 64.8073 286.287 64.2262 286.606 63.7021C286.948 63.1781 287.37 62.7451 287.871 62.4033C288.372 62.0387 288.953 61.8564 289.614 61.8564C290.298 61.8564 290.845 62.0273 291.255 62.3691C291.688 62.7109 292.03 63.1667 292.28 63.7363C292.531 64.306 292.736 64.9554 292.896 65.6846C293.055 66.4137 293.226 67.1543 293.408 67.9062C293.59 68.6582 293.818 69.3988 294.092 70.1279C294.365 70.8571 294.741 71.5065 295.22 72.0762C295.698 72.6458 296.313 73.1016 297.065 73.4434C297.817 73.7852 298.763 73.9561 299.902 73.9561ZM336.201 65.9238C336.201 66.2201 336.144 66.5846 336.03 67.0176C335.939 67.4277 335.7 67.8265 335.312 68.2139C334.948 68.5785 334.412 68.8861 333.706 69.1367C333 69.4102 332.043 69.5469 330.835 69.5469C329.627 69.5469 328.682 69.3988 327.998 69.1025C327.314 68.8291 326.802 68.4987 326.46 68.1113C326.118 67.724 325.902 67.3252 325.811 66.915C325.742 66.5049 325.708 66.1745 325.708 65.9238V39.5371C325.708 38.8763 325.549 38.3066 325.229 37.8281C324.933 37.3268 324.421 37.0762 323.691 37.0762C323.304 37.0762 322.974 37.1445 322.7 37.2812C322.427 37.418 322.131 37.6117 321.812 37.8623L321.094 37.0078C321.618 36.5749 322.199 36.1533 322.837 35.7432C323.498 35.3102 324.204 34.9342 324.956 34.6152C325.708 34.2962 326.517 34.0342 327.383 33.8291C328.249 33.624 329.16 33.5215 330.117 33.5215C331.598 33.5215 332.749 33.7266 333.569 34.1367C334.39 34.5241 334.993 35.014 335.381 35.6064C335.768 36.1761 335.996 36.7913 336.064 37.4521C336.156 38.113 336.201 38.694 336.201 39.1953V65.9238ZM324.648 25.7285C324.648 25.0905 324.785 24.4867 325.059 23.917C325.355 23.3245 325.754 22.8118 326.255 22.3789C326.779 21.946 327.371 21.6042 328.032 21.3535C328.716 21.1029 329.456 20.9775 330.254 20.9775C331.029 20.9775 331.746 21.1029 332.407 21.3535C333.091 21.6042 333.683 21.946 334.185 22.3789C334.686 22.8118 335.073 23.3245 335.347 23.917C335.643 24.4867 335.791 25.0905 335.791 25.7285C335.791 26.3893 335.643 27.0046 335.347 27.5742C335.073 28.1439 334.686 28.6452 334.185 29.0781C333.683 29.4883 333.091 29.8187 332.407 30.0693C331.746 30.32 331.029 30.4453 330.254 30.4453C329.456 30.4453 328.716 30.32 328.032 30.0693C327.371 29.8187 326.779 29.4883 326.255 29.0781C325.754 28.6452 325.355 28.1439 325.059 27.5742C324.785 27.0046 324.648 26.3893 324.648 25.7285ZM360.229 51.2949C360.229 50.7253 360.047 50.2923 359.683 49.9961C359.318 49.6999 358.851 49.5518 358.281 49.5518C357.484 49.5518 356.72 49.734 355.991 50.0986C355.285 50.4632 354.658 50.9987 354.111 51.7051C353.564 52.4115 353.132 53.2887 352.812 54.3369C352.493 55.3623 352.334 56.5586 352.334 57.9258C352.334 59.2474 352.425 60.3411 352.607 61.207C352.812 62.0729 353.075 62.7679 353.394 63.292C353.735 63.7933 354.123 64.1465 354.556 64.3516C354.989 64.5566 355.444 64.6592 355.923 64.6592C356.515 64.6592 357.074 64.5111 357.598 64.2148C358.122 63.8958 358.577 63.4971 358.965 63.0186C359.352 62.54 359.66 62.0046 359.888 61.4121C360.116 60.8197 360.229 60.2272 360.229 59.6348V51.2949ZM354.795 36.3242C354.02 36.3242 353.302 36.4154 352.642 36.5977C351.981 36.7799 351.411 37.0078 350.933 37.2812C350.454 37.5547 350.078 37.8623 349.805 38.2041C349.531 38.5231 349.395 38.8307 349.395 39.127C349.395 39.4688 349.565 39.7194 349.907 39.8789C350.272 40.0156 350.671 40.1865 351.104 40.3916C351.536 40.5739 351.924 40.8473 352.266 41.2119C352.63 41.5537 352.812 42.0892 352.812 42.8184C352.812 43.2969 352.71 43.7412 352.505 44.1514C352.323 44.5387 352.061 44.8919 351.719 45.2109C351.4 45.5072 351.012 45.7464 350.557 45.9287C350.124 46.0882 349.668 46.168 349.189 46.168C347.913 46.168 346.877 45.735 346.079 44.8691C345.304 44.0033 344.917 42.8525 344.917 41.417C344.917 40.027 345.282 38.8421 346.011 37.8623C346.74 36.8597 347.686 36.0394 348.848 35.4014C350.033 34.7633 351.366 34.2962 352.847 34C354.328 33.681 355.809 33.5215 357.29 33.5215C359.067 33.5215 360.765 33.7152 362.383 34.1025C364.001 34.4899 365.425 35.1051 366.655 35.9482C367.909 36.7913 368.9 37.8623 369.629 39.1611C370.381 40.46 370.757 42.0322 370.757 43.8779V63.1895C370.757 63.3945 370.768 63.6224 370.791 63.873C370.814 64.1237 370.871 64.3516 370.962 64.5566C371.053 64.7617 371.19 64.9326 371.372 65.0693C371.554 65.2061 371.816 65.2744 372.158 65.2744C372.568 65.2744 372.944 65.1263 373.286 64.8301C373.651 64.5111 373.97 64.1921 374.243 63.873L375.098 64.5908C374.756 65.0693 374.346 65.5934 373.867 66.1631C373.389 66.7327 372.808 67.2682 372.124 67.7695C371.44 68.2708 370.643 68.6924 369.731 69.0342C368.82 69.376 367.783 69.5469 366.621 69.5469C365.186 69.5469 363.91 69.1253 362.793 68.2822C361.676 67.4163 360.947 66.0947 360.605 64.3174C359.876 65.2972 359.113 66.1175 358.315 66.7783C357.541 67.4391 356.743 67.9746 355.923 68.3848C355.103 68.7949 354.271 69.0911 353.428 69.2734C352.607 69.4557 351.776 69.5469 350.933 69.5469C349.839 69.5469 348.779 69.376 347.754 69.0342C346.729 68.6924 345.806 68.1569 344.985 67.4277C344.188 66.6758 343.538 65.7074 343.037 64.5225C342.559 63.3376 342.319 61.8906 342.319 60.1816C342.319 58.1081 342.729 56.4105 343.55 55.0889C344.37 53.7673 345.441 52.6621 346.763 51.7734C348.107 50.862 349.622 50.0872 351.309 49.4492C353.018 48.8112 354.761 48.139 356.538 47.4326C357.86 46.9085 358.817 46.1338 359.409 45.1084C360.024 44.0602 360.332 42.9893 360.332 41.8955C360.332 40.2093 359.831 38.8649 358.828 37.8623C357.848 36.8369 356.504 36.3242 354.795 36.3242ZM380.122 39.5371C380.122 38.8763 379.963 38.3066 379.644 37.8281C379.347 37.3268 378.835 37.0762 378.105 37.0762C377.718 37.0762 377.388 37.1445 377.114 37.2812C376.841 37.418 376.545 37.6117 376.226 37.8623L375.508 37.0078C376.032 36.5749 376.613 36.1533 377.251 35.7432C377.912 35.3102 378.618 34.9342 379.37 34.6152C380.122 34.2962 380.931 34.0342 381.797 33.8291C382.663 33.624 383.574 33.5215 384.531 33.5215C385.557 33.5215 386.434 33.681 387.163 34C387.892 34.319 388.496 34.7064 388.975 35.1621C389.476 35.5951 389.852 36.0622 390.103 36.5635C390.353 37.042 390.501 37.4521 390.547 37.7939C391.003 37.1559 391.538 36.5749 392.153 36.0508C392.791 35.5267 393.475 35.0824 394.204 34.7178C394.956 34.3304 395.742 34.0342 396.562 33.8291C397.406 33.624 398.271 33.5215 399.16 33.5215C400.983 33.5215 402.635 33.8975 404.116 34.6494C405.597 35.4014 406.862 36.5179 407.91 37.999C408.981 39.4801 409.801 41.3145 410.371 43.502C410.941 45.6895 411.226 48.2188 411.226 51.0898C411.226 54.4167 410.872 57.2536 410.166 59.6006C409.482 61.9248 408.571 63.8275 407.432 65.3086C406.315 66.7897 405.028 67.8721 403.569 68.5557C402.134 69.2165 400.664 69.5469 399.16 69.5469C397.907 69.5469 396.802 69.4215 395.845 69.1709C394.91 68.9202 394.102 68.6126 393.418 68.248C392.734 67.8835 392.165 67.5189 391.709 67.1543C391.253 66.7669 390.889 66.4479 390.615 66.1973V82.877C390.615 83.1732 390.57 83.5264 390.479 83.9365C390.387 84.3467 390.16 84.734 389.795 85.0986C389.453 85.486 388.929 85.8164 388.223 86.0898C387.539 86.3633 386.593 86.5 385.386 86.5C384.178 86.5 383.221 86.3519 382.515 86.0557C381.831 85.7822 381.307 85.4404 380.942 85.0303C380.578 84.6429 380.35 84.2441 380.259 83.834C380.168 83.4466 380.122 83.1276 380.122 82.877V39.5371ZM390.615 61.3096C390.615 61.4919 390.695 61.8109 390.854 62.2666C391.014 62.7223 391.265 63.1895 391.606 63.668C391.948 64.1465 392.381 64.5794 392.905 64.9668C393.452 65.3314 394.113 65.5137 394.888 65.5137C395.89 65.5137 396.745 65.1377 397.451 64.3857C398.158 63.611 398.739 62.5742 399.194 61.2754C399.65 59.9538 399.98 58.4271 400.186 56.6953C400.391 54.9408 400.493 53.0723 400.493 51.0898C400.493 48.6517 400.356 46.5895 400.083 44.9033C399.832 43.2171 399.456 41.8613 398.955 40.8359C398.454 39.7878 397.85 39.0358 397.144 38.5801C396.46 38.1016 395.685 37.8623 394.819 37.8623C394.318 37.8623 393.817 38.0104 393.315 38.3066C392.814 38.5801 392.358 38.9333 391.948 39.3662C391.561 39.7764 391.242 40.2435 390.991 40.7676C390.741 41.2917 390.615 41.793 390.615 42.2715V61.3096ZM433.101 51.2949C433.101 50.7253 432.918 50.2923 432.554 49.9961C432.189 49.6999 431.722 49.5518 431.152 49.5518C430.355 49.5518 429.591 49.734 428.862 50.0986C428.156 50.4632 427.529 50.9987 426.982 51.7051C426.436 52.4115 426.003 53.2887 425.684 54.3369C425.365 55.3623 425.205 56.5586 425.205 57.9258C425.205 59.2474 425.296 60.3411 425.479 61.207C425.684 62.0729 425.946 62.7679 426.265 63.292C426.606 63.7933 426.994 64.1465 427.427 64.3516C427.86 64.5566 428.315 64.6592 428.794 64.6592C429.386 64.6592 429.945 64.5111 430.469 64.2148C430.993 63.8958 431.449 63.4971 431.836 63.0186C432.223 62.54 432.531 62.0046 432.759 61.4121C432.987 60.8197 433.101 60.2272 433.101 59.6348V51.2949ZM427.666 36.3242C426.891 36.3242 426.174 36.4154 425.513 36.5977C424.852 36.7799 424.282 37.0078 423.804 37.2812C423.325 37.5547 422.949 37.8623 422.676 38.2041C422.402 38.5231 422.266 38.8307 422.266 39.127C422.266 39.4688 422.437 39.7194 422.778 39.8789C423.143 40.0156 423.542 40.1865 423.975 40.3916C424.408 40.5739 424.795 40.8473 425.137 41.2119C425.501 41.5537 425.684 42.0892 425.684 42.8184C425.684 43.2969 425.581 43.7412 425.376 44.1514C425.194 44.5387 424.932 44.8919 424.59 45.2109C424.271 45.5072 423.883 45.7464 423.428 45.9287C422.995 46.0882 422.539 46.168 422.061 46.168C420.785 46.168 419.748 45.735 418.95 44.8691C418.175 44.0033 417.788 42.8525 417.788 41.417C417.788 40.027 418.153 38.8421 418.882 37.8623C419.611 36.8597 420.557 36.0394 421.719 35.4014C422.904 34.7633 424.237 34.2962 425.718 34C427.199 33.681 428.68 33.5215 430.161 33.5215C431.938 33.5215 433.636 33.7152 435.254 34.1025C436.872 34.4899 438.296 35.1051 439.526 35.9482C440.78 36.7913 441.771 37.8623 442.5 39.1611C443.252 40.46 443.628 42.0322 443.628 43.8779V63.1895C443.628 63.3945 443.639 63.6224 443.662 63.873C443.685 64.1237 443.742 64.3516 443.833 64.5566C443.924 64.7617 444.061 64.9326 444.243 65.0693C444.425 65.2061 444.688 65.2744 445.029 65.2744C445.439 65.2744 445.815 65.1263 446.157 64.8301C446.522 64.5111 446.841 64.1921 447.114 63.873L447.969 64.5908C447.627 65.0693 447.217 65.5934 446.738 66.1631C446.26 66.7327 445.679 67.2682 444.995 67.7695C444.312 68.2708 443.514 68.6924 442.603 69.0342C441.691 69.376 440.654 69.5469 439.492 69.5469C438.057 69.5469 436.781 69.1253 435.664 68.2822C434.548 67.4163 433.818 66.0947 433.477 64.3174C432.747 65.2972 431.984 66.1175 431.187 66.7783C430.412 67.4391 429.614 67.9746 428.794 68.3848C427.974 68.7949 427.142 69.0911 426.299 69.2734C425.479 69.4557 424.647 69.5469 423.804 69.5469C422.71 69.5469 421.65 69.376 420.625 69.0342C419.6 68.6924 418.677 68.1569 417.856 67.4277C417.059 66.6758 416.41 65.7074 415.908 64.5225C415.43 63.3376 415.19 61.8906 415.19 60.1816C415.19 58.1081 415.601 56.4105 416.421 55.0889C417.241 53.7673 418.312 52.6621 419.634 51.7734C420.978 50.862 422.493 50.0872 424.18 49.4492C425.889 48.8112 427.632 48.139 429.409 47.4326C430.731 46.9085 431.688 46.1338 432.28 45.1084C432.896 44.0602 433.203 42.9893 433.203 41.8955C433.203 40.2093 432.702 38.8649 431.699 37.8623C430.719 36.8369 429.375 36.3242 427.666 36.3242ZM492.676 64.5225C492.676 66.277 492.209 67.5531 491.274 68.3506C490.363 69.1481 488.962 69.5469 487.07 69.5469C485.156 69.5469 483.743 69.1481 482.832 68.3506C481.921 67.5531 481.465 66.277 481.465 64.5225V23.3701C481.465 22.8688 481.408 22.4701 481.294 22.1738C481.18 21.8776 481.021 21.6497 480.815 21.4902C480.61 21.3079 480.36 21.194 480.063 21.1484C479.79 21.0801 479.482 21.0459 479.141 21.0459C478.639 21.0459 478.013 21.1257 477.261 21.2852C476.532 21.4447 475.757 21.6839 474.937 22.0029C474.116 22.3219 473.285 22.7207 472.441 23.1992C471.621 23.6549 470.881 24.179 470.22 24.7715C469.582 25.3639 469.058 26.0247 468.647 26.7539C468.237 27.4831 468.032 28.2692 468.032 29.1123C468.032 29.8415 468.123 30.4225 468.306 30.8555C468.511 31.2884 468.739 31.6188 468.989 31.8467C469.24 32.0518 469.491 32.1885 469.741 32.2568C470.015 32.3024 470.208 32.3252 470.322 32.3252C470.892 32.3252 471.359 32.234 471.724 32.0518C472.088 31.8467 472.419 31.6416 472.715 31.4365C473.011 31.2087 473.285 31.0036 473.535 30.8213C473.809 30.6162 474.116 30.5137 474.458 30.5137C474.731 30.5137 475.016 30.582 475.312 30.7188C475.632 30.8327 475.916 31.0264 476.167 31.2998C476.44 31.5732 476.668 31.9378 476.851 32.3936C477.033 32.8265 477.124 33.362 477.124 34C477.124 34.9115 476.942 35.6976 476.577 36.3584C476.235 37.0192 475.78 37.5775 475.21 38.0332C474.663 38.4661 474.025 38.7965 473.296 39.0244C472.59 39.2295 471.883 39.332 471.177 39.332C470.083 39.332 469.092 39.1497 468.203 38.7852C467.337 38.3978 466.597 37.8737 465.981 37.2129C465.366 36.5521 464.899 35.7773 464.58 34.8887C464.261 34 464.102 33.0544 464.102 32.0518C464.102 30.4795 464.386 29.0439 464.956 27.7451C465.526 26.4235 466.3 25.2386 467.28 24.1904C468.283 23.1423 469.445 22.2308 470.767 21.4561C472.111 20.6585 473.558 19.9977 475.107 19.4736C476.657 18.9495 478.275 18.5622 479.961 18.3115C481.647 18.0381 483.333 17.9014 485.02 17.9014C486.888 17.9014 488.335 18.0837 489.36 18.4482C490.409 18.79 491.172 19.2116 491.65 19.7129C492.152 20.2142 492.448 20.7383 492.539 21.2852C492.63 21.832 492.676 22.2878 492.676 22.6523V64.5225ZM513.218 36.4609V61.7197C513.218 62.9274 513.446 63.7705 513.901 64.249C514.357 64.7048 514.984 64.9326 515.781 64.9326C516.396 64.9326 516.943 64.7617 517.422 64.4199C517.9 64.0781 518.311 63.6908 518.652 63.2578C519.062 62.7793 519.416 62.221 519.712 61.583L520.771 62.0615C520.43 62.7907 520.02 63.5882 519.541 64.4541C519.085 65.32 518.47 66.1289 517.695 66.8809C516.921 67.61 515.941 68.2253 514.756 68.7266C513.594 69.2279 512.124 69.4785 510.347 69.4785C509.344 69.4785 508.376 69.3304 507.441 69.0342C506.53 68.738 505.71 68.2708 504.98 67.6328C504.274 66.9948 503.704 66.1973 503.271 65.2402C502.839 64.2832 502.622 63.1325 502.622 61.7881V36.4609H498.794V34C499.432 34 500.321 33.8405 501.46 33.5215C502.599 33.1797 503.761 32.6214 504.946 31.8467C506.154 31.0719 507.271 30.0352 508.296 28.7363C509.321 27.4375 510.05 25.8311 510.483 23.917H513.218V34H518.789C520.612 34 521.523 33.6924 521.523 33.0771C521.523 32.8493 521.41 32.7012 521.182 32.6328C520.954 32.5417 520.692 32.4391 520.396 32.3252C520.122 32.1885 519.871 32.0062 519.644 31.7783C519.416 31.5505 519.302 31.1745 519.302 30.6504C519.302 30.0124 519.495 29.5111 519.883 29.1465C520.293 28.7819 520.817 28.5996 521.455 28.5996C521.865 28.5996 522.218 28.6908 522.515 28.873C522.834 29.0326 523.096 29.2604 523.301 29.5566C523.506 29.8301 523.654 30.1491 523.745 30.5137C523.859 30.8783 523.916 31.2428 523.916 31.6074C523.916 33.0885 523.483 34.2734 522.617 35.1621C521.774 36.028 520.407 36.4609 518.516 36.4609H513.218ZM556.284 63.0527C556.284 63.2578 556.296 63.4857 556.318 63.7363C556.341 63.9642 556.398 64.1921 556.489 64.4199C556.58 64.625 556.717 64.7959 556.899 64.9326C557.082 65.0693 557.344 65.1377 557.686 65.1377C558.118 65.1377 558.506 64.9896 558.848 64.6934C559.189 64.3743 559.508 64.0553 559.805 63.7363L560.625 64.4541C560.283 64.9326 559.85 65.4681 559.326 66.0605C558.825 66.6302 558.21 67.1771 557.48 67.7012C556.751 68.2253 555.92 68.6582 554.985 69C554.051 69.3646 552.992 69.5469 551.807 69.5469C550.804 69.5469 549.927 69.4102 549.175 69.1367C548.446 68.8861 547.819 68.5443 547.295 68.1113C546.794 67.6556 546.418 67.1315 546.167 66.5391C545.916 65.9238 545.791 65.2744 545.791 64.5908V63.0527C544.652 64.2832 543.455 65.3656 542.202 66.2998C541.655 66.71 541.074 67.1087 540.459 67.4961C539.844 67.8835 539.206 68.2367 538.545 68.5557C537.884 68.8519 537.201 69.0911 536.494 69.2734C535.788 69.4557 535.081 69.5469 534.375 69.5469C533.008 69.5469 531.834 69.3076 530.854 68.8291C529.897 68.3278 529.123 67.6784 528.53 66.8809C527.938 66.0833 527.505 65.1833 527.231 64.1807C526.958 63.1781 526.821 62.1755 526.821 61.1729V40.0156C526.821 39.8105 526.81 39.5941 526.787 39.3662C526.764 39.1156 526.707 38.8877 526.616 38.6826C526.525 38.4548 526.388 38.2725 526.206 38.1357C526.024 37.999 525.762 37.9307 525.42 37.9307C525.01 37.9307 524.622 38.0902 524.258 38.4092C523.916 38.7054 523.608 39.013 523.335 39.332L522.48 38.6143C522.822 38.1357 523.244 37.6117 523.745 37.042C524.269 36.4495 524.896 35.8913 525.625 35.3672C526.354 34.8431 527.186 34.4102 528.12 34.0684C529.077 33.7038 530.137 33.5215 531.299 33.5215C532.301 33.5215 533.179 33.6582 533.931 33.9316C534.683 34.1823 535.309 34.5355 535.811 34.9912C536.312 35.4242 536.688 35.9482 536.938 36.5635C537.189 37.1559 537.314 37.7939 537.314 38.4775V61.3096C537.314 61.6286 537.36 61.959 537.451 62.3008C537.565 62.6198 537.713 62.916 537.896 63.1895C538.101 63.4629 538.351 63.6908 538.647 63.873C538.944 64.0326 539.297 64.1123 539.707 64.1123C540.368 64.1123 541.029 63.9414 541.689 63.5996C542.35 63.2578 542.954 62.859 543.501 62.4033C544.048 61.9248 544.515 61.4577 544.902 61.002C545.312 60.5462 545.609 60.2044 545.791 59.9766V40.0156C545.791 39.8105 545.78 39.5941 545.757 39.3662C545.734 39.1156 545.677 38.8877 545.586 38.6826C545.495 38.4548 545.358 38.2725 545.176 38.1357C544.993 37.999 544.731 37.9307 544.39 37.9307C543.979 37.9307 543.592 38.0902 543.228 38.4092C542.886 38.7054 542.578 39.013 542.305 39.332L541.45 38.6143C541.792 38.1357 542.214 37.6117 542.715 37.042C543.239 36.4495 543.866 35.8913 544.595 35.3672C545.324 34.8431 546.156 34.4102 547.09 34.0684C548.047 33.7038 549.106 33.5215 550.269 33.5215C551.271 33.5215 552.148 33.6582 552.9 33.9316C553.652 34.1823 554.279 34.5355 554.78 34.9912C555.282 35.4242 555.658 35.9482 555.908 36.5635C556.159 37.1559 556.284 37.7939 556.284 38.4775V63.0527Z" fill="white"/>
<path d="M605.4 64.5225C605.4 66.277 604.933 67.5531 603.999 68.3506C603.088 69.1481 601.686 69.5469 599.795 69.5469C597.881 69.5469 596.468 69.1481 595.557 68.3506C594.645 67.5531 594.189 66.277 594.189 64.5225V23.6436C594.189 22.3903 593.324 21.7637 591.592 21.7637C590.339 21.7637 589.062 21.9574 587.764 22.3447C586.488 22.7093 585.326 23.222 584.277 23.8828C583.252 24.5208 582.409 25.2956 581.748 26.207C581.087 27.0957 580.757 28.0641 580.757 29.1123C580.757 29.8415 580.848 30.4225 581.03 30.8555C581.235 31.2884 581.463 31.6188 581.714 31.8467C581.965 32.0518 582.215 32.1885 582.466 32.2568C582.739 32.3024 582.933 32.3252 583.047 32.3252C583.617 32.3252 584.084 32.234 584.448 32.0518C584.813 31.8467 585.143 31.6416 585.439 31.4365C585.736 31.2087 586.009 31.0036 586.26 30.8213C586.533 30.6162 586.841 30.5137 587.183 30.5137C587.456 30.5137 587.741 30.582 588.037 30.7188C588.356 30.8327 588.641 31.0264 588.892 31.2998C589.165 31.5732 589.393 31.9378 589.575 32.3936C589.757 32.8265 589.849 33.362 589.849 34C589.849 34.9115 589.666 35.6976 589.302 36.3584C588.96 37.0192 588.504 37.5775 587.935 38.0332C587.388 38.4661 586.75 38.7965 586.021 39.0244C585.314 39.2295 584.608 39.332 583.901 39.332C582.808 39.332 581.816 39.1497 580.928 38.7852C580.062 38.3978 579.321 37.8737 578.706 37.2129C578.091 36.5521 577.624 35.7773 577.305 34.8887C576.986 34 576.826 33.0544 576.826 32.0518C576.826 30.1605 577.179 28.4971 577.886 27.0615C578.592 25.6032 579.583 24.3499 580.859 23.3018C582.158 22.2536 583.708 21.3877 585.508 20.7041C587.308 19.9977 589.302 19.4395 591.489 19.0293C593.677 18.6191 596.012 18.3343 598.496 18.1748C601.003 17.9925 603.6 17.9014 606.289 17.9014C612.806 17.9014 617.739 19.1546 621.089 21.6611C624.438 24.1449 626.113 27.7223 626.113 32.3936C626.113 34.6722 625.806 36.6888 625.19 38.4434C624.598 40.1979 623.789 41.7132 622.764 42.9893C621.761 44.2425 620.599 45.2679 619.277 46.0654C617.956 46.8402 616.589 47.3984 615.176 47.7402C613.763 48.082 612.339 48.2188 610.903 48.1504C609.491 48.082 608.169 47.82 606.938 47.3643L607.417 45.8945C609.126 46.4186 610.527 46.4414 611.621 45.9629C612.738 45.4616 613.604 44.5843 614.219 43.3311C614.857 42.0778 615.29 40.4941 615.518 38.5801C615.768 36.666 615.894 34.5583 615.894 32.2568C615.894 30.5251 615.711 28.9528 615.347 27.54C614.982 26.1045 614.481 24.8854 613.843 23.8828C613.228 22.8802 612.498 22.1055 611.655 21.5586C610.835 20.9889 609.958 20.7041 609.023 20.7041C608.294 20.7041 607.69 20.818 607.212 21.0459C606.756 21.251 606.392 21.5244 606.118 21.8662C605.868 22.1852 605.685 22.5384 605.571 22.9258C605.48 23.2904 605.423 23.6436 605.4 23.9854V64.5225ZM642.656 65.9238C642.656 66.2201 642.599 66.5846 642.485 67.0176C642.394 67.4277 642.155 67.8265 641.768 68.2139C641.403 68.5785 640.868 68.8861 640.161 69.1367C639.455 69.4102 638.498 69.5469 637.29 69.5469C636.082 69.5469 635.137 69.3988 634.453 69.1025C633.77 68.8291 633.257 68.4987 632.915 68.1113C632.573 67.724 632.357 67.3252 632.266 66.915C632.197 66.5049 632.163 66.1745 632.163 65.9238V39.5371C632.163 38.8763 632.004 38.3066 631.685 37.8281C631.388 37.3268 630.876 37.0762 630.146 37.0762C629.759 37.0762 629.429 37.1445 629.155 37.2812C628.882 37.418 628.586 37.6117 628.267 37.8623L627.549 37.0078C628.073 36.5749 628.654 36.1533 629.292 35.7432C629.953 35.3102 630.659 34.9342 631.411 34.6152C632.163 34.2962 632.972 34.0342 633.838 33.8291C634.704 33.624 635.615 33.5215 636.572 33.5215C638.053 33.5215 639.204 33.7266 640.024 34.1367C640.845 34.5241 641.449 35.014 641.836 35.6064C642.223 36.1761 642.451 36.7913 642.52 37.4521C642.611 38.113 642.656 38.694 642.656 39.1953V65.9238ZM631.104 25.7285C631.104 25.0905 631.24 24.4867 631.514 23.917C631.81 23.3245 632.209 22.8118 632.71 22.3789C633.234 21.946 633.826 21.6042 634.487 21.3535C635.171 21.1029 635.911 20.9775 636.709 20.9775C637.484 20.9775 638.201 21.1029 638.862 21.3535C639.546 21.6042 640.138 21.946 640.64 22.3789C641.141 22.8118 641.528 23.3245 641.802 23.917C642.098 24.4867 642.246 25.0905 642.246 25.7285C642.246 26.3893 642.098 27.0046 641.802 27.5742C641.528 28.1439 641.141 28.6452 640.64 29.0781C640.138 29.4883 639.546 29.8187 638.862 30.0693C638.201 30.32 637.484 30.4453 636.709 30.4453C635.911 30.4453 635.171 30.32 634.487 30.0693C633.826 29.8187 633.234 29.4883 632.71 29.0781C632.209 28.6452 631.81 28.1439 631.514 27.5742C631.24 27.0046 631.104 26.3893 631.104 25.7285ZM671.401 51.9785C671.401 49.1074 671.265 46.8174 670.991 45.1084C670.741 43.3766 670.399 42.0664 669.966 41.1777C669.533 40.2663 669.054 39.6738 668.53 39.4004C668.006 39.1042 667.471 38.9561 666.924 38.9561C666.263 38.9561 665.671 39.1383 665.146 39.5029C664.645 39.8447 664.201 40.2435 663.813 40.6992C663.449 41.1549 663.13 41.6107 662.856 42.0664C662.606 42.5221 662.389 42.8639 662.207 43.0918V65.9238C662.207 66.2201 662.161 66.5846 662.07 67.0176C661.979 67.4277 661.751 67.8265 661.387 68.2139C661.045 68.5785 660.521 68.8861 659.814 69.1367C659.131 69.4102 658.185 69.5469 656.978 69.5469C655.77 69.5469 654.813 69.3988 654.106 69.1025C653.423 68.8291 652.899 68.4987 652.534 68.1113C652.17 67.724 651.942 67.3252 651.851 66.915C651.759 66.5049 651.714 66.1745 651.714 65.9238V39.5371C651.714 38.8763 651.554 38.3066 651.235 37.8281C650.939 37.3268 650.426 37.0762 649.697 37.0762C649.31 37.0762 648.979 37.1445 648.706 37.2812C648.433 37.418 648.136 37.6117 647.817 37.8623L647.1 37.0078C647.624 36.5749 648.205 36.1533 648.843 35.7432C649.504 35.3102 650.21 34.9342 650.962 34.6152C651.714 34.2962 652.523 34.0342 653.389 33.8291C654.255 33.624 655.166 33.5215 656.123 33.5215C657.604 33.5215 658.755 33.7721 659.575 34.2734C660.396 34.752 660.999 35.333 661.387 36.0166C661.774 36.7002 662.002 37.418 662.07 38.1699C662.161 38.8991 662.207 39.5143 662.207 40.0156C663.05 38.8079 664.007 37.7256 665.078 36.7686C665.511 36.3584 665.99 35.9596 666.514 35.5723C667.061 35.1849 667.63 34.8431 668.223 34.5469C668.838 34.2279 669.476 33.9772 670.137 33.7949C670.82 33.6126 671.515 33.5215 672.222 33.5215C673.771 33.5215 675.138 33.8177 676.323 34.4102C677.531 35.0026 678.545 35.9938 679.365 37.3838C680.186 38.7738 680.812 40.6195 681.245 42.9209C681.678 45.1995 681.895 48.0365 681.895 51.4316C681.895 54.7357 681.598 57.6068 681.006 60.0449C680.413 62.4831 679.639 64.5566 678.682 66.2656C677.725 67.9746 676.642 69.3646 675.435 70.4355C674.227 71.5293 673.008 72.3838 671.777 72.999C670.547 73.6143 669.362 74.0358 668.223 74.2637C667.106 74.5143 666.138 74.651 665.317 74.6738L664.941 73.2725C665.625 73.113 666.252 72.8623 666.821 72.5205C667.414 72.1787 667.949 71.6774 668.428 71.0166C668.906 70.3558 669.328 69.5241 669.692 68.5215C670.057 67.4961 670.365 66.2201 670.615 64.6934C670.889 63.1667 671.082 61.3665 671.196 59.293C671.333 57.1966 671.401 54.7585 671.401 51.9785ZM686.782 51.5C686.782 48.515 687.215 45.9059 688.081 43.6729C688.947 41.417 690.098 39.5371 691.533 38.0332C692.992 36.5293 694.678 35.4014 696.592 34.6494C698.506 33.8975 700.511 33.5215 702.607 33.5215C704.704 33.5215 706.709 33.8747 708.623 34.5811C710.537 35.2646 712.212 36.3242 713.647 37.7598C715.106 39.1953 716.268 41.0182 717.134 43.2285C718 45.416 718.433 48.0137 718.433 51.0215C718.433 54.0065 718 56.6497 717.134 58.9512C716.268 61.2526 715.106 63.1895 713.647 64.7617C712.212 66.334 710.537 67.5303 708.623 68.3506C706.709 69.1481 704.704 69.5469 702.607 69.5469C700.511 69.5469 698.506 69.1709 696.592 68.4189C694.678 67.6442 692.992 66.5049 691.533 65.001C690.098 63.4971 688.947 61.6172 688.081 59.3613C687.215 57.1055 686.782 54.485 686.782 51.5ZM707.803 51.1582C707.803 49.3353 707.734 47.5807 707.598 45.8945C707.484 44.1855 707.244 42.6702 706.88 41.3486C706.515 40.027 705.991 38.9788 705.308 38.2041C704.624 37.4066 703.724 37.0078 702.607 37.0078C701.491 37.0078 700.591 37.4294 699.907 38.2725C699.224 39.0928 698.7 40.1865 698.335 41.5537C697.97 42.8981 697.731 44.4362 697.617 46.168C697.503 47.8997 697.446 49.6771 697.446 51.5C697.446 53.3229 697.503 55.1117 697.617 56.8662C697.731 58.598 697.97 60.1475 698.335 61.5146C698.7 62.8818 699.224 63.987 699.907 64.8301C700.591 65.6504 701.491 66.0605 702.607 66.0605C703.724 66.0605 704.624 65.6276 705.308 64.7617C705.991 63.8958 706.515 62.7565 706.88 61.3438C707.244 59.931 707.484 58.3359 707.598 56.5586C707.734 54.7812 707.803 52.9811 707.803 51.1582ZM746.562 45.3477C745.856 45.3477 745.264 45.2451 744.785 45.04C744.307 44.8122 743.919 44.516 743.623 44.1514C743.327 43.7868 743.11 43.388 742.974 42.9551C742.837 42.4993 742.769 42.0322 742.769 41.5537C742.769 40.9385 742.803 40.346 742.871 39.7764C742.962 39.2067 742.974 38.694 742.905 38.2383C742.86 37.7826 742.689 37.418 742.393 37.1445C742.096 36.8711 741.572 36.7344 740.82 36.7344C740.023 36.7344 739.18 36.9622 738.291 37.418C737.402 37.8737 736.593 38.5915 735.864 39.5713C735.135 40.5511 734.531 41.8158 734.053 43.3652C733.574 44.8919 733.335 46.7376 733.335 48.9023C733.335 51.2949 733.551 53.4824 733.984 55.4648C734.44 57.4245 735.112 59.0993 736.001 60.4893C736.89 61.8792 737.995 62.9616 739.316 63.7363C740.638 64.4883 742.188 64.8643 743.965 64.8643C744.762 64.8643 745.514 64.7731 746.221 64.5908C746.95 64.4085 747.633 64.1579 748.271 63.8389C748.91 63.5199 749.513 63.1553 750.083 62.7451C750.675 62.3122 751.245 61.8564 751.792 61.3779L752.646 62.1982C752.122 62.9046 751.45 63.6794 750.63 64.5225C749.81 65.3656 748.818 66.1631 747.656 66.915C746.494 67.6442 745.138 68.2594 743.589 68.7607C742.039 69.2393 740.273 69.4785 738.291 69.4785C736.309 69.4785 734.372 69.1025 732.48 68.3506C730.612 67.5758 728.949 66.4593 727.49 65.001C726.032 63.5426 724.858 61.7767 723.97 59.7031C723.104 57.6068 722.671 55.2256 722.671 52.5596C722.671 50.486 722.933 48.5833 723.457 46.8516C723.981 45.097 724.688 43.5133 725.576 42.1006C726.488 40.6878 727.536 39.446 728.721 38.375C729.928 37.304 731.193 36.4154 732.515 35.709C733.836 34.9798 735.181 34.4329 736.548 34.0684C737.938 33.7038 739.271 33.5215 740.547 33.5215C742.233 33.5215 743.703 33.7152 744.956 34.1025C746.209 34.4899 747.246 35.0026 748.066 35.6406C748.91 36.2786 749.536 37.0192 749.946 37.8623C750.356 38.6826 750.562 39.5371 750.562 40.4258C750.562 41.0866 750.47 41.7246 750.288 42.3398C750.129 42.9323 749.878 43.4564 749.536 43.9121C749.217 44.3451 748.807 44.6982 748.306 44.9717C747.804 45.2223 747.223 45.3477 746.562 45.3477ZM778.965 45.3477C778.258 45.3477 777.666 45.2451 777.188 45.04C776.709 44.8122 776.322 44.516 776.025 44.1514C775.729 43.7868 775.513 43.388 775.376 42.9551C775.239 42.4993 775.171 42.0322 775.171 41.5537C775.171 40.9385 775.205 40.346 775.273 39.7764C775.365 39.2067 775.376 38.694 775.308 38.2383C775.262 37.7826 775.091 37.418 774.795 37.1445C774.499 36.8711 773.975 36.7344 773.223 36.7344C772.425 36.7344 771.582 36.9622 770.693 37.418C769.805 37.8737 768.996 38.5915 768.267 39.5713C767.537 40.5511 766.934 41.8158 766.455 43.3652C765.977 44.8919 765.737 46.7376 765.737 48.9023C765.737 51.2949 765.954 53.4824 766.387 55.4648C766.842 57.4245 767.515 59.0993 768.403 60.4893C769.292 61.8792 770.397 62.9616 771.719 63.7363C773.04 64.4883 774.59 64.8643 776.367 64.8643C777.165 64.8643 777.917 64.7731 778.623 64.5908C779.352 64.4085 780.036 64.1579 780.674 63.8389C781.312 63.5199 781.916 63.1553 782.485 62.7451C783.078 62.3122 783.647 61.8564 784.194 61.3779L785.049 62.1982C784.525 62.9046 783.853 63.6794 783.032 64.5225C782.212 65.3656 781.221 66.1631 780.059 66.915C778.896 67.6442 777.541 68.2594 775.991 68.7607C774.442 69.2393 772.676 69.4785 770.693 69.4785C768.711 69.4785 766.774 69.1025 764.883 68.3506C763.014 67.5758 761.351 66.4593 759.893 65.001C758.434 63.5426 757.261 61.7767 756.372 59.7031C755.506 57.6068 755.073 55.2256 755.073 52.5596C755.073 50.486 755.335 48.5833 755.859 46.8516C756.383 45.097 757.09 43.5133 757.979 42.1006C758.89 40.6878 759.938 39.446 761.123 38.375C762.331 37.304 763.595 36.4154 764.917 35.709C766.239 34.9798 767.583 34.4329 768.95 34.0684C770.34 33.7038 771.673 33.5215 772.949 33.5215C774.635 33.5215 776.105 33.7152 777.358 34.1025C778.612 34.4899 779.648 35.0026 780.469 35.6406C781.312 36.2786 781.938 37.0192 782.349 37.8623C782.759 38.6826 782.964 39.5371 782.964 40.4258C782.964 41.0866 782.873 41.7246 782.69 42.3398C782.531 42.9323 782.28 43.4564 781.938 43.9121C781.619 44.3451 781.209 44.6982 780.708 44.9717C780.207 45.2223 779.626 45.3477 778.965 45.3477ZM800.225 40.0156C801.068 38.8079 802.025 37.7256 803.096 36.7686C803.529 36.3584 804.007 35.9596 804.531 35.5723C805.078 35.1849 805.648 34.8431 806.24 34.5469C806.855 34.2279 807.493 33.9772 808.154 33.7949C808.838 33.6126 809.533 33.5215 810.239 33.5215C811.766 33.5215 813.133 33.8177 814.341 34.4102C815.549 35.0026 816.562 35.9938 817.383 37.3838C818.203 38.7738 818.83 40.6195 819.263 42.9209C819.696 45.1995 819.912 48.0365 819.912 51.4316C819.912 54.7357 819.616 57.6068 819.023 60.0449C818.431 62.4831 817.656 64.5566 816.699 66.2656C815.742 67.9746 814.66 69.3646 813.452 70.4355C812.244 71.5293 811.025 72.3838 809.795 72.999C808.564 73.6143 807.38 74.0358 806.24 74.2637C805.101 74.5143 804.121 74.651 803.301 74.6738L802.959 73.2725C803.984 73.0218 804.896 72.5547 805.693 71.8711C806.491 71.1875 807.163 70.071 807.71 68.5215C808.257 66.9492 808.667 64.8415 808.94 62.1982C809.237 59.555 809.385 56.1484 809.385 51.9785C809.385 49.1074 809.248 46.8174 808.975 45.1084C808.724 43.3766 808.382 42.0664 807.949 41.1777C807.539 40.2663 807.061 39.6738 806.514 39.4004C805.99 39.1042 805.454 38.9561 804.907 38.9561C804.246 38.9561 803.665 39.1383 803.164 39.5029C802.663 39.8447 802.218 40.2435 801.831 40.6992C801.466 41.1549 801.147 41.6107 800.874 42.0664C800.623 42.5221 800.407 42.8639 800.225 43.0918V65.9238C800.225 66.2201 800.179 66.5846 800.088 67.0176C799.997 67.4277 799.769 67.8265 799.404 68.2139C799.062 68.5785 798.538 68.8861 797.832 69.1367C797.148 69.4102 796.203 69.5469 794.995 69.5469C793.787 69.5469 792.83 69.3988 792.124 69.1025C791.418 68.8291 790.882 68.4987 790.518 68.1113C790.176 67.724 789.959 67.3252 789.868 66.915C789.777 66.5049 789.731 66.1745 789.731 65.9238V21.832C789.731 21.1712 789.572 20.6016 789.253 20.123C788.957 19.6217 788.444 19.3711 787.715 19.3711C787.327 19.3711 786.986 19.4395 786.689 19.5762C786.416 19.6901 786.12 19.8724 785.801 20.123L785.117 19.3027C785.641 18.8698 786.222 18.4482 786.86 18.0381C787.498 17.6051 788.193 17.2292 788.945 16.9102C789.72 16.5911 790.54 16.3291 791.406 16.124C792.272 15.9189 793.184 15.8164 794.141 15.8164C795.622 15.8164 796.772 16.0215 797.593 16.4316C798.413 16.819 799.017 17.3089 799.404 17.9014C799.792 18.471 800.02 19.0863 800.088 19.7471C800.179 20.3851 800.225 20.9548 800.225 21.4561V40.0156ZM837.891 65.9238C837.891 66.2201 837.834 66.5846 837.72 67.0176C837.629 67.4277 837.389 67.8265 837.002 68.2139C836.637 68.5785 836.102 68.8861 835.396 69.1367C834.689 69.4102 833.732 69.5469 832.524 69.5469C831.317 69.5469 830.371 69.3988 829.688 69.1025C829.004 68.8291 828.491 68.4987 828.149 68.1113C827.808 67.724 827.591 67.3252 827.5 66.915C827.432 66.5049 827.397 66.1745 827.397 65.9238V39.5371C827.397 38.8763 827.238 38.3066 826.919 37.8281C826.623 37.3268 826.11 37.0762 825.381 37.0762C824.993 37.0762 824.663 37.1445 824.39 37.2812C824.116 37.418 823.82 37.6117 823.501 37.8623L822.783 37.0078C823.307 36.5749 823.888 36.1533 824.526 35.7432C825.187 35.3102 825.894 34.9342 826.646 34.6152C827.397 34.2962 828.206 34.0342 829.072 33.8291C829.938 33.624 830.85 33.5215 831.807 33.5215C833.288 33.5215 834.438 33.7266 835.259 34.1367C836.079 34.5241 836.683 35.014 837.07 35.6064C837.458 36.1761 837.686 36.7913 837.754 37.4521C837.845 38.113 837.891 38.694 837.891 39.1953V65.9238ZM826.338 25.7285C826.338 25.0905 826.475 24.4867 826.748 23.917C827.044 23.3245 827.443 22.8118 827.944 22.3789C828.468 21.946 829.061 21.6042 829.722 21.3535C830.405 21.1029 831.146 20.9775 831.943 20.9775C832.718 20.9775 833.436 21.1029 834.097 21.3535C834.78 21.6042 835.373 21.946 835.874 22.3789C836.375 22.8118 836.763 23.3245 837.036 23.917C837.332 24.4867 837.48 25.0905 837.48 25.7285C837.48 26.3893 837.332 27.0046 837.036 27.5742C836.763 28.1439 836.375 28.6452 835.874 29.0781C835.373 29.4883 834.78 29.8187 834.097 30.0693C833.436 30.32 832.718 30.4453 831.943 30.4453C831.146 30.4453 830.405 30.32 829.722 30.0693C829.061 29.8187 828.468 29.4883 827.944 29.0781C827.443 28.6452 827.044 28.1439 826.748 27.5742C826.475 27.0046 826.338 26.3893 826.338 25.7285ZM844.351 51.5C844.351 48.515 844.784 45.9059 845.649 43.6729C846.515 41.417 847.666 39.5371 849.102 38.0332C850.56 36.5293 852.246 35.4014 854.16 34.6494C856.074 33.8975 858.079 33.5215 860.176 33.5215C862.272 33.5215 864.277 33.8747 866.191 34.5811C868.105 35.2646 869.78 36.3242 871.216 37.7598C872.674 39.1953 873.836 41.0182 874.702 43.2285C875.568 45.416 876.001 48.0137 876.001 51.0215C876.001 54.0065 875.568 56.6497 874.702 58.9512C873.836 61.2526 872.674 63.1895 871.216 64.7617C869.78 66.334 868.105 67.5303 866.191 68.3506C864.277 69.1481 862.272 69.5469 860.176 69.5469C858.079 69.5469 856.074 69.1709 854.16 68.4189C852.246 67.6442 850.56 66.5049 849.102 65.001C847.666 63.4971 846.515 61.6172 845.649 59.3613C844.784 57.1055 844.351 54.485 844.351 51.5ZM865.371 51.1582C865.371 49.3353 865.303 47.5807 865.166 45.8945C865.052 44.1855 864.813 42.6702 864.448 41.3486C864.084 40.027 863.56 38.9788 862.876 38.2041C862.192 37.4066 861.292 37.0078 860.176 37.0078C859.059 37.0078 858.159 37.4294 857.476 38.2725C856.792 39.0928 856.268 40.1865 855.903 41.5537C855.539 42.8981 855.299 44.4362 855.186 46.168C855.072 47.8997 855.015 49.6771 855.015 51.5C855.015 53.3229 855.072 55.1117 855.186 56.8662C855.299 58.598 855.539 60.1475 855.903 61.5146C856.268 62.8818 856.792 63.987 857.476 64.8301C858.159 65.6504 859.059 66.0605 860.176 66.0605C861.292 66.0605 862.192 65.6276 862.876 64.7617C863.56 63.8958 864.084 62.7565 864.448 61.3438C864.813 59.931 865.052 58.3359 865.166 56.5586C865.303 54.7812 865.371 52.9811 865.371 51.1582ZM893.706 20.9775C892.567 20.9775 891.507 21.194 890.527 21.627C889.548 22.0371 888.693 22.5954 887.964 23.3018C887.235 24.0081 886.665 24.8057 886.255 25.6943C885.845 26.583 885.64 27.4831 885.64 28.3945C885.64 29.0553 885.731 29.5794 885.913 29.9668C886.095 30.3314 886.312 30.6162 886.562 30.8213C886.813 31.0036 887.052 31.1289 887.28 31.1973C887.531 31.2428 887.713 31.2656 887.827 31.2656C888.351 31.2656 888.784 31.1859 889.126 31.0264C889.468 30.8441 889.764 30.6618 890.015 30.4795C890.288 30.2744 890.539 30.0921 890.767 29.9326C891.017 29.7503 891.313 29.6592 891.655 29.6592C891.906 29.6592 892.168 29.7161 892.441 29.8301C892.738 29.9212 893.011 30.0921 893.262 30.3428C893.512 30.5706 893.717 30.8896 893.877 31.2998C894.036 31.6872 894.116 32.1657 894.116 32.7354C894.116 33.4417 893.934 34.0798 893.569 34.6494C893.228 35.1963 892.772 35.6748 892.202 36.085C891.655 36.4723 891.029 36.7686 890.322 36.9736C889.639 37.1787 888.966 37.2812 888.306 37.2812C886.255 37.2812 884.626 36.6204 883.418 35.2988C882.233 33.9544 881.641 32.0518 881.641 29.5908C881.641 27.6084 882.051 25.888 882.871 24.4297C883.714 22.9486 884.819 21.7295 886.187 20.7725C887.576 19.7926 889.16 19.0749 890.938 18.6191C892.715 18.1406 894.549 17.9014 896.44 17.9014C898.628 17.9014 900.633 18.1976 902.456 18.79C904.302 19.3825 905.885 20.2256 907.207 21.3193C908.551 22.3903 909.6 23.6891 910.352 25.2158C911.104 26.7425 911.479 28.4287 911.479 30.2744C911.479 32.3024 911.138 34.0684 910.454 35.5723C909.771 37.0762 908.893 38.432 907.822 39.6396C906.774 40.8245 905.623 41.9183 904.37 42.9209C903.117 43.9007 901.909 44.9147 900.747 45.9629C899.608 46.9883 898.594 48.0934 897.705 49.2783C896.839 50.4404 896.27 51.7848 895.996 53.3115H893.262C893.262 51.8988 893.444 50.5771 893.809 49.3467C894.173 48.1162 894.618 46.9313 895.142 45.792C895.688 44.6299 896.27 43.4792 896.885 42.3398C897.523 41.2005 898.104 40.0042 898.628 38.751C899.175 37.4977 899.631 36.1647 899.995 34.752C900.36 33.3164 900.542 31.7327 900.542 30.001C900.542 28.6566 900.405 27.4375 900.132 26.3438C899.881 25.2272 899.471 24.2702 898.901 23.4727C898.354 22.6751 897.648 22.0599 896.782 21.627C895.916 21.194 894.891 20.9775 893.706 20.9775ZM889.434 63.8047C889.434 63.0072 889.582 62.2552 889.878 61.5488C890.174 60.8424 890.573 60.2272 891.074 59.7031C891.598 59.179 892.202 58.7689 892.886 58.4727C893.592 58.1536 894.355 57.9941 895.176 57.9941C895.973 57.9941 896.725 58.1536 897.432 58.4727C898.138 58.7689 898.753 59.179 899.277 59.7031C899.801 60.2272 900.212 60.8424 900.508 61.5488C900.827 62.2552 900.986 63.0072 900.986 63.8047C900.986 64.625 900.827 65.3883 900.508 66.0947C900.212 66.7783 899.801 67.3822 899.277 67.9062C898.753 68.4076 898.138 68.8063 897.432 69.1025C896.725 69.3988 895.973 69.5469 895.176 69.5469C894.355 69.5469 893.592 69.3988 892.886 69.1025C892.202 68.8063 891.598 68.4076 891.074 67.9062C890.573 67.3822 890.174 66.7783 889.878 66.0947C889.582 65.3883 889.434 64.625 889.434 63.8047Z" fill="url(#paint1_linear_160_9)"/>
</g>
<line x1="0.0195636" y1="47.5001" x2="230.02" y2="50.5001" stroke="white" stroke-width="3"/>
<line x1="972.02" y1="50.5001" x2="1202.02" y2="53.5001" stroke="white" stroke-width="3"/>
<defs>
<filter id="filter0_d_160_9" x="281.615" y="15.8164" width="633.864" height="78.6836" filterUnits="userSpaceOnUse" color-interpolation-filters="sRGB">
<feFlood flood-opacity="0" result="BackgroundImageFix"/>
<feColorMatrix in="SourceAlpha" type="matrix" values="0 0 0 0 0 0 0 0 0 0 0 0 0 0 0 0 0 0 127 0" result="hardAlpha"/>
<feOffset dy="4"/>
<feGaussianBlur stdDeviation="2"/>
<feComposite in2="hardAlpha" operator="out"/>
<feColorMatrix type="matrix" values="0 0 0 0 0 0 0 0 0 0 0 0 0 0 0 0 0 0 0.25 0"/>
<feBlend mode="normal" in2="BackgroundImageFix" result="effect1_dropShadow_160_9"/>
<feBlend mode="normal" in="SourceGraphic" in2="effect1_dropShadow_160_9" result="shape"/>
</filter>
<linearGradient id="paint0_linear_160_9" x1="601" y1="0" x2="601" y2="87" gradientUnits="userSpaceOnUse">
<stop stop-color="#F6D56E"/>
<stop offset="0.598958" stop-color="#E89F0F"/>
<stop offset="1" stop-color="#B06C17"/>
</linearGradient>
<linearGradient id="paint1_linear_160_9" x1="601" y1="0" x2="601" y2="87" gradientUnits="userSpaceOnUse">
<stop stop-color="#F6D56E"/>
<stop offset="0.598958" stop-color="#E89F0F"/>
<stop offset="1" stop-color="#B06C17"/>
</linearGradient>
</defs>
</svg>
